<svg xmlns="http://www.w3.org/2000/svg" fill="none" viewBox="0 0 116 40" height="40" width="116">
<g clip-path="url(#clip0_1425_569)">
<path fill="white" d="M37.9326 9.15556V5.38272H40.6969V11.1383C39.3641 11.4642 37.2662 11.7086 35.3164 11.7086C30.3753 11.7086 27.7246 9.4 27.7246 5.85432C27.7246 2.30864 30.3901 0 35.5114 0C37.3477 0 38.8606 0.180247 40.0947 0.488889V2.94321C38.8433 2.60247 36.7307 2.39012 35.2523 2.39012C32.3251 2.39012 30.7653 3.67407 30.7653 5.85432C30.7653 8.03457 32.3745 9.31852 35.1856 9.31852C36.0297 9.31852 37.0861 9.25432 37.9326 9.15556Z"></path>
<path fill="white" d="M49.6531 0C54.1894 0 56.7242 2.34074 56.7242 5.85432C56.7242 9.3679 54.1894 11.7086 49.6531 11.7086C45.1168 11.7086 42.582 9.3679 42.582 5.85432C42.582 2.34074 45.134 0 49.6531 0ZM49.6531 9.31852C52.1557 9.31852 53.6835 7.98518 53.6835 5.85432C53.6835 3.72346 52.1557 2.39012 49.6531 2.39012C47.1505 2.39012 45.6227 3.72346 45.6227 5.85432C45.6227 7.98518 47.1677 9.31852 49.6531 9.31852Z"></path>
<path fill="white" d="M65.3562 0C69.8926 0 72.4273 2.34074 72.4273 5.85432C72.4273 9.3679 69.8926 11.7086 65.3562 11.7086C60.8199 11.7086 58.2852 9.3679 58.2852 5.85432C58.2852 2.34074 60.8372 0 65.3562 0ZM65.3562 9.31852C67.8589 9.31852 69.3866 7.98518 69.3866 5.85432C69.3866 3.72346 67.8589 2.39012 65.3562 2.39012C62.8536 2.39012 61.3258 3.72346 61.3258 5.85432C61.3258 7.98518 62.8709 9.31852 65.3562 9.31852Z"></path>
<path fill="white" d="M74.6387 0.164062H81.3198C85.3674 0.164062 87.6257 2.34184 87.6257 5.85542C87.6257 9.369 85.3674 11.5468 81.3198 11.5468H74.6387V0.164062ZM77.6127 2.55419V9.15666H81.3198C83.351 9.15666 84.5875 7.98628 84.5875 5.85542C84.5875 3.72456 83.351 2.55419 81.3198 2.55419H77.6127Z"></path>
<path fill="white" d="M8.875 15.5234H12.1427L18.0439 22.3531H18.271V15.5234H21.245V26.9062H18.076L12.0786 19.9457H11.8515V26.9062H8.875V15.5234Z"></path>
<path fill="white" d="M27.4711 15.5234H32.738L37.3385 26.9062H34.1695L33.2908 24.7259H26.9034L26.0421 26.9062H22.873L27.4736 15.5234H27.4711ZM32.4443 22.4815L30.6574 17.9778H29.5517L27.7623 22.4815H32.4443Z"></path>
<path fill="white" d="M41.2881 17.9136H36.0879V15.5234H49.4649V17.9136H44.2647V26.9062H41.2881V17.9136Z"></path>
<path fill="white" d="M60.3076 21.9967V15.5078H63.2668V21.9967C63.2668 25.33 61.0727 27.0708 57.1065 27.0708C53.1403 27.0708 50.9141 25.33 50.9141 21.9967V15.5078H53.8881V21.9967C53.8881 23.6881 55.058 24.6807 57.0892 24.6807C59.1204 24.6807 60.3076 23.6732 60.3076 21.9967Z"></path>
<path fill="white" d="M65.9648 15.5234H72.9224C76.548 15.5234 78.2214 16.842 78.2214 19.3457C78.2214 21.3136 77.2637 22.4691 75.4102 22.7778C75.3608 22.795 75.2646 22.795 75.2152 22.8099C76.0766 23.5086 76.6615 24.3531 77.5895 24.3531H79.021V26.9555H77.2317C74.1762 26.9555 73.5591 23.2 70.6493 23.037H68.9414V26.9086H65.9673V15.5259L65.9648 15.5234ZM68.9414 17.9136V21.0024H72.9076C74.4995 21.0024 75.1831 20.4987 75.1831 19.4568C75.1831 18.4148 74.4995 17.9111 72.9076 17.9111H68.9414V17.9136Z"></path>
<path fill="white" d="M80.8398 15.5234H91.7636V17.9136H83.8139V19.9629H90.3815V22.158H83.8139V24.516H91.7636V26.9062H80.8398V15.5234Z"></path>
<path fill="white" d="M94.1348 15.5234H100.816C104.864 15.5234 107.122 17.7012 107.122 21.2148C107.122 24.7284 104.864 26.9062 100.816 26.9062H94.1348V15.5234ZM97.1113 17.9136V24.516H100.818C102.85 24.516 104.086 23.3457 104.086 21.2148C104.086 19.0839 102.85 17.9136 100.818 17.9136H97.1113Z"></path>
<path fill="white" d="M30.2012 30.8359H35.1349C37.5042 30.8359 38.5902 31.5569 38.5902 33.152C38.5902 34.1866 38.0916 34.8409 37.0328 35.1545V35.2606C38.3162 35.5347 38.9431 36.268 38.9431 37.5125C38.9431 39.2261 37.8572 39.9989 35.4755 39.9989H30.2012V30.8359ZM30.8577 31.4236V34.9717H35.1225C37.0723 34.9717 37.9238 34.4359 37.9238 33.1915C37.9238 31.947 37.0748 31.4236 35.1225 31.4236H30.8577ZM30.8577 35.5224V39.4112H35.4631C37.4129 39.4112 38.2644 38.8236 38.2644 37.4606C38.2644 36.0977 37.4277 35.5224 35.4631 35.5224H30.8577Z"></path>
<path fill="white" d="M41.5625 30.8359H46.5357C48.9051 30.8359 50.0034 31.7001 50.0034 33.5199C50.0034 35.3396 49.0087 36.1643 46.98 36.1643H46.4172C48.3423 37.068 48.6805 39.3841 50.1465 39.3841H51.1411V39.9989H50.0428C47.8191 39.9989 47.8043 36.2927 44.5217 36.189H42.219V39.9989H41.565V30.8359H41.5625ZM42.219 31.4236V35.6261H46.5234C48.4978 35.6261 49.3246 34.9841 49.3246 33.5174C49.3246 32.0508 48.5003 31.4236 46.5234 31.4236H42.219Z"></path>
<path fill="white" d="M56.4174 30.8359H58.1845L62.321 39.9989H61.6275L60.4897 37.4853H54.1048L52.9793 39.9989H52.2734L56.4223 30.8359H56.4174ZM60.2528 36.91L57.7797 31.4508H56.8122L54.3516 36.91H60.2528Z"></path>
<path fill="white" d="M64.5586 30.8359H65.225L72.4367 38.873H72.5675V30.8359H73.2339V39.9989H72.5552L65.3558 31.9742H65.2126V39.9989H64.5586V30.8359Z"></path>
<path fill="white" d="M76.5625 30.8359H81.0519C84.0482 30.8359 85.8548 32.6433 85.8548 35.4187C85.8548 38.194 84.0482 40.0014 81.0519 40.0014H76.5625V30.8384V30.8359ZM77.2165 31.4236V39.4088H81.0495C83.6286 39.4088 85.1835 37.8508 85.1835 35.4162C85.1835 32.9816 83.6262 31.4236 81.0495 31.4236H77.2165Z"></path>
</g>
<defs>
<clipPath id="clip0_1425_569">
<rect fill="white" height="40" width="116"></rect>
</clipPath>
</defs>
</svg>
